<?xml version="1.0" encoding="UTF-8"?><svg xmlns="http://www.w3.org/2000/svg" xmlns:xlink="http://www.w3.org/1999/xlink" fill="#000000" height="262.6" preserveAspectRatio="xMidYMid meet" version="1" viewBox="22.5 99.9 460.0 262.6" width="460" zoomAndPan="magnify"><g><g id="change1_1"><path d="M 239.820312 339.132812 C 235.027344 330.292969 225.265625 326.847656 205.003906 326.847656 C 204.109375 326.847656 203.222656 326.855469 202.332031 326.863281 C 180.359375 327.128906 165.929688 331.351562 151.972656 335.4375 C 139.914062 338.964844 127.445312 342.613281 111.863281 343.011719 C 110.921875 343.035156 109.980469 343.046875 109.0625 343.046875 C 89.335938 343.046875 74.136719 337.496094 63.890625 326.542969 C 53.429688 315.367188 51 301.617188 50.640625 292.003906 C 32.023438 282.636719 22.570312 262.265625 22.496094 231.253906 C 22.570312 200.183594 32.023438 179.804688 50.640625 170.433594 C 51.003906 160.816406 53.4375 147.070312 63.898438 135.890625 C 74.144531 124.941406 89.34375 119.386719 109.066406 119.386719 C 109.984375 119.386719 110.914062 119.398438 111.867188 119.425781 C 127.445312 119.824219 139.910156 123.472656 151.96875 127.003906 C 165.925781 131.085938 180.355469 135.308594 202.332031 135.570312 C 203.21875 135.585938 204.109375 135.589844 205 135.589844 C 225.265625 135.589844 235.027344 132.144531 239.820312 123.304688 L 252.496094 99.902344 L 265.175781 123.304688 C 269.96875 132.144531 279.730469 135.589844 299.996094 135.589844 C 300.886719 135.589844 301.773438 135.585938 302.664062 135.570312 C 324.640625 135.308594 339.070312 131.085938 353.027344 127.003906 C 365.085938 123.472656 377.550781 119.824219 393.128906 119.425781 C 394.074219 119.398438 395.015625 119.386719 395.929688 119.386719 C 415.65625 119.386719 430.855469 124.941406 441.105469 135.894531 C 451.5625 147.070312 453.992188 160.820312 454.355469 170.433594 C 472.972656 179.804688 482.429688 200.175781 482.496094 231.183594 C 482.429688 262.253906 472.972656 282.636719 454.355469 292.003906 C 453.992188 301.621094 451.558594 315.367188 441.101562 326.546875 C 430.851562 337.496094 415.65625 343.046875 395.933594 343.046875 C 395.015625 343.046875 394.078125 343.035156 393.128906 343.011719 C 377.550781 342.613281 365.082031 338.964844 353.023438 335.4375 C 339.066406 331.351562 324.636719 327.128906 302.660156 326.863281 C 301.773438 326.855469 300.886719 326.847656 299.996094 326.847656 C 279.726562 326.847656 269.964844 330.292969 265.175781 339.132812 L 252.496094 362.535156 L 239.820312 339.132812" fill="#d0a979"/></g><g id="change2_1"><path d="M 252.496094 336.804688 L 250.597656 333.292969 C 241.234375 316.015625 221.496094 314.371094 202.1875 314.609375 C 178.527344 314.890625 162.589844 319.554688 148.527344 323.671875 C 136.703125 327.132812 125.535156 330.398438 111.550781 330.757812 C 110.710938 330.78125 109.875 330.789062 109.0625 330.789062 C 92.863281 330.789062 80.675781 326.546875 72.839844 318.171875 C 61.832031 306.40625 62.65625 289.769531 63.046875 283.726562 C 53.878906 281.351562 34.851562 274.015625 34.753906 231.226562 C 34.851562 188.425781 53.878906 181.089844 63.046875 178.710938 C 62.65625 172.664062 61.839844 156.03125 72.847656 144.265625 C 80.683594 135.890625 92.871094 131.644531 109.066406 131.644531 C 109.882812 131.644531 110.707031 131.65625 111.550781 131.679688 C 125.53125 132.035156 136.703125 135.304688 148.527344 138.765625 C 162.589844 142.882812 178.527344 147.546875 202.1875 147.828125 C 221.496094 148.0625 241.234375 146.421875 250.597656 129.144531 L 252.496094 125.632812 L 254.398438 129.144531 C 263.757812 146.421875 283.492188 148.070312 302.8125 147.828125 C 326.46875 147.546875 342.40625 142.882812 356.46875 138.765625 C 368.292969 135.304688 379.460938 132.035156 393.441406 131.679688 C 394.285156 131.65625 395.117188 131.644531 395.929688 131.644531 C 412.128906 131.644531 424.316406 135.890625 432.152344 144.269531 C 443.160156 156.03125 442.34375 172.664062 441.945312 178.710938 C 451.117188 181.089844 470.140625 188.429688 470.238281 231.214844 C 470.140625 274.011719 451.117188 281.347656 441.945312 283.726562 C 442.339844 289.773438 443.15625 306.40625 432.148438 318.171875 C 424.3125 326.546875 412.128906 330.789062 395.929688 330.789062 C 395.117188 330.789062 394.285156 330.78125 393.441406 330.757812 C 379.460938 330.398438 368.292969 327.132812 356.46875 323.671875 C 342.40625 319.558594 326.46875 314.890625 302.8125 314.609375 C 283.496094 314.378906 263.757812 316.019531 254.398438 333.292969 Z M 205.003906 310.265625 C 222.6875 310.265625 241.941406 312.46875 252.496094 328.09375 C 263.058594 312.46875 282.308594 310.265625 299.992188 310.265625 C 300.949219 310.265625 301.90625 310.269531 302.863281 310.28125 C 327.109375 310.570312 343.351562 315.324219 357.683594 319.519531 C 369.230469 322.898438 380.136719 326.089844 393.554688 326.433594 C 394.359375 326.453125 395.152344 326.464844 395.929688 326.464844 C 410.882812 326.464844 422.003906 322.679688 428.992188 315.214844 C 438.992188 304.527344 437.980469 289.308594 437.601562 283.578125 C 437.5625 282.976562 437.527344 282.488281 437.519531 282.128906 L 437.460938 280.363281 L 439.175781 279.953125 C 446.460938 278.210938 465.816406 273.578125 465.914062 231.214844 C 465.816406 188.863281 446.460938 184.230469 439.175781 182.484375 L 437.460938 182.074219 L 437.519531 180.308594 C 437.527344 179.949219 437.5625 179.460938 437.601562 178.859375 C 437.980469 173.128906 438.992188 157.910156 428.996094 147.222656 C 422.007812 139.757812 410.882812 135.972656 395.929688 135.972656 C 395.152344 135.972656 394.355469 135.980469 393.554688 136.003906 C 380.136719 136.347656 369.230469 139.539062 357.6875 142.917969 C 343.355469 147.109375 327.113281 151.863281 302.863281 152.15625 C 301.90625 152.167969 300.953125 152.175781 299.996094 152.175781 C 282.308594 152.175781 263.058594 149.972656 252.496094 134.347656 C 241.941406 149.972656 222.6875 152.175781 205 152.175781 C 204.042969 152.175781 203.085938 152.167969 202.132812 152.15625 C 177.882812 151.863281 161.640625 147.109375 147.3125 142.917969 C 135.765625 139.539062 124.859375 136.347656 111.441406 136.003906 C 110.632812 135.980469 109.84375 135.972656 109.066406 135.972656 C 94.113281 135.972656 82.992188 139.757812 76.003906 147.222656 C 66.003906 157.910156 67.015625 173.132812 67.394531 178.859375 C 67.433594 179.460938 67.46875 179.949219 67.476562 180.308594 L 67.535156 182.074219 L 65.820312 182.484375 C 58.53125 184.226562 39.175781 188.859375 39.082031 231.226562 C 39.175781 273.578125 58.53125 278.210938 65.820312 279.953125 L 67.535156 280.363281 L 67.476562 282.128906 C 67.46875 282.488281 67.433594 282.980469 67.394531 283.578125 C 67.015625 289.308594 66 304.527344 76 315.214844 C 82.984375 322.679688 94.109375 326.464844 109.0625 326.464844 C 109.839844 326.464844 110.636719 326.453125 111.441406 326.433594 C 124.859375 326.089844 135.765625 322.898438 147.3125 319.519531 C 161.644531 315.324219 177.882812 310.570312 202.132812 310.28125 C 203.089844 310.269531 204.042969 310.265625 205.003906 310.265625" fill="#ffffff"/></g></g></svg>